# xmcd
#
# Track frame offsets:
#	150
#	37177
#	64187
#	92082
#	130102
#	152335
#	176355
#	204302
#	232255
#	258067
#
# Disc length: 3875 seconds
#
# Revision: 0
# Processed by: cddbd v1.5.2PL0 Copyright (c) Steve Scherf et al.
# Submitted via: EasyCDDAExtractor 2011.0.0.0
#
DISCID=7e0f210a
DTITLE=Wamdue Project - Program Yourself
DYEAR=1998
DGENRE=Deep House
TTITLE0=King Of My Castle (Original Deep Mix)
TTITLE1=Like This
TTITLE2=Are You High?
TTITLE3=Walk With Me
TTITLE4=Giraffe
TTITLE5=Where Do We Go
TTITLE6=Spirit
TTITLE7=You're The Reason
TTITLE8=Instrumentation
TTITLE9=Diving For Pills
EXTD=
EXTT0=
EXTT1=
EXTT2=
EXTT3=
EXTT4=
EXTT5=
EXTT6=
EXTT7=
EXTT8=
EXTT9=
PLAYORDER=
